<?xml version="1.0" encoding="UTF-8"?>
<svg width="240px" height="170px" viewBox="0 0 240 170" version="1.1" xmlns="http://www.w3.org/2000/svg" xmlns:xlink="http://www.w3.org/1999/xlink">
    <!-- Generator: Sketch 52 (66869) - http://www.bohemiancoding.com/sketch -->
    <title>System_News_default_image</title>
    <desc>Created with Sketch.</desc>
    <g id="System_News_default_image" stroke="none" stroke-width="1" fill="none" fill-rule="evenodd">
        <rect fill="#EFEFEF" x="0" y="0" width="240" height="170"></rect>
        <g id="Group" transform="translate(67.000000, 32.000000)">
            <circle id="Oval" fill="#FFFFFF" cx="53" cy="53" r="53"></circle>
            <g id="Information" transform="translate(28.266667, 28.266667)" fill="#000000" fill-rule="nonzero">
                <path d="M24.7634013,1.93986928 C12.2842222,1.93986928 2.13094641,12.0931451 2.13094641,24.5723242 C2.13094641,37.0515032 12.2842222,47.2047792 24.7634013,47.2047792 C37.2425802,47.2047792 47.3958563,37.0515032 47.3958563,24.5723242 C47.3958563,12.0931451 37.2425802,1.93986928 24.7634013,1.93986928 Z M24.7634013,49.1446483 C11.2143843,49.1446483 0.191077124,38.121341 0.191077124,24.5723242 C0.191077124,11.0233072 11.2143843,0 24.7634013,0 C38.3124184,0 49.3357256,11.0233072 49.3357256,24.5723242 C49.3357256,38.121341 38.3124184,49.1446483 24.7634013,49.1446483 Z" id="Fill-1"></path>
                <path d="M23.1028732,37.3027163 L26.4239294,37.3027163 L26.4239294,20.1261438 L23.1028732,20.1261438 L23.1028732,37.3027163 Z M22.3531137,13.6275817 C22.3531137,12.9369882 22.5849281,12.3598771 23.0504967,11.8952784 C23.5141255,11.4316497 24.0786274,11.1988654 24.7459425,11.1988654 C25.4365359,11.1988654 26.0136471,11.4316497 26.4782458,11.8952784 C26.9418745,12.3598771 27.1746588,12.9369882 27.1746588,13.6275817 C27.1746588,14.2939268 26.9418745,14.8593987 26.4782458,15.3230274 C26.0136471,15.7876261 25.4365359,16.0204105 24.7459425,16.0204105 C24.0786274,16.0204105 23.5141255,15.7876261 23.0504967,15.3230274 C22.5849281,14.8593987 22.3531137,14.2939268 22.3531137,13.6275817 Z" id="Fill-2"></path>
            </g>
        </g>
    </g>
</svg>