<svg width="20" height="20" viewBox="0 0 20 20" fill="none" xmlns="http://www.w3.org/2000/svg">
<g id="search-2-line 2" clip-path="url(#clip0_5104_1281)">
<path id="Vector" d="M9.16748 1.66602C13.3075 1.66602 16.6675 5.02602 16.6675 9.16602C16.6675 13.306 13.3075 16.666 9.16748 16.666C5.02748 16.666 1.66748 13.306 1.66748 9.16602C1.66748 5.02602 5.02748 1.66602 9.16748 1.66602ZM9.16748 14.9993C12.39 14.9993 15.0008 12.3885 15.0008 9.16602C15.0008 5.94268 12.39 3.33268 9.16748 3.33268C5.94415 3.33268 3.33415 5.94268 3.33415 9.16602C3.33415 12.3885 5.94415 14.9993 9.16748 14.9993ZM16.2383 15.0585L18.5958 17.4152L17.4166 18.5943L15.06 16.2368L16.2383 15.0585Z" fill="black"/>
</g>
<defs>
<clipPath id="clip0_5104_1281">
<rect width="20" height="20" fill="white" transform="translate(0.000976562)"/>
</clipPath>
</defs>
</svg>
